# xmcd
#
# Track frame offsets: 
#        150
#        13654
#        23717
#        31718
#        43252
#        50924
#        60034
#        74805
#        86792
#        92354
#        98955
#        113674
#        123307
#        133581
#        143072
#        152118
#        159310
#        171154
#        181991
#        196142
#        208806
#        221809
#        229393
#        242031
#        248547
#        260843
#        268689
#        277796
#        293908
#        303492
#
# Disc length: 4158 seconds
#
# Revision: 1
# Processed by: cddbd v1.5.2PL0 Copyright (c) Steve Scherf et al.
# Submitted via: ExactAudioCopy v1.0b3
#
DISCID=b2103c1e
DTITLE=Merle Travis - Turn Your Radio On (1944-1965)
DYEAR=1998
DGENRE=Country
TTITLE0=Town Hall Party - Old Joe Clark
TTITLE1=Nine Pound Hammer
TTITLE2=Down Yonder
TTITLE3=The Blues
TTITLE4=Rock A Bye Rag
TTITLE5=Sugar Hill
TTITLE6=Cincinatti Lou
TTITLE7=House of David Blues
TTITLE8=Memphis Blues
TTITLE9=Wildwood Flower
TTITLE10=Midnight Special
TTITLE11=Bugle Call Rag
TTITLE12=Give me your hand
TTITLE13=Fireball Mail
TTITLE14=Smoke On The Water
TTITLE15=Fox Chase
TTITLE16=Turn Your Radio On
TTITLE17=Maple On The Hill
TTITLE18=Tiger Rag
TTITLE19=Mose Merle Rag
TTITLE20=Old Guitar Blues (in A)
TTITLE21=I'll see you in my dreams
TTITLE22=Sixteen Tons
TTITLE23=Canonball Rag
TTITLE24=John Henry
TTITLE25=Rock A Bye Rag
TTITLE26=Under the Double Eagle
TTITLE27=No Vacancy , So Firm So Round So Fully Packed, 
TTITLE28=Nine Pound Hammer
TTITLE29=I'll see you in my dreams
EXTD=YEAR: 1998
EXTT0=
EXTT1=
EXTT2=
EXTT3=
EXTT4=
EXTT5=
EXTT6=
EXTT7=
EXTT8=
EXTT9=
EXTT10=
EXTT11=
EXTT12=
EXTT13=
EXTT14=
EXTT15=
EXTT16=
EXTT17=
EXTT18=
EXTT19=
EXTT20=
EXTT21=
EXTT22=
EXTT23=
EXTT24=
EXTT25=
EXTT26=
EXTT27=
EXTT28=
EXTT29=
PLAYORDER=
